<?xml version="1.0" standalone="no"?>
<!DOCTYPE svg PUBLIC "-//W3C//DTD SVG 20010904//EN"
 "http://www.w3.org/TR/2001/REC-SVG-20010904/DTD/svg10.dtd">
<svg version="1.0" xmlns="http://www.w3.org/2000/svg"
 width="514.000000pt" height="511.000000pt" viewBox="0 0 514.000000 511.000000"
 preserveAspectRatio="xMidYMid meet">
<metadata>
Created by potrace 1.16, written by Peter Selinger 2001-2019
</metadata>
<g transform="translate(0.000000,511.000000) scale(0.100000,-0.100000)"
fill="#FFFFFF" stroke="none">
<path d="M3987 3936 c-152 -51 -279 -95 -282 -98 -2 -2 27 -26 65 -54 38 -27
69 -52 67 -56 -9 -25 -457 -441 -678 -629 -582 -496 -1136 -832 -1760 -1069
-224 -85 -393 -168 -449 -222 -103 -98 -106 -195 -10 -282 75 -68 203 -109
460 -150 574 -91 1201 -85 1568 15 390 105 602 320 602 610 0 187 -94 338
-284 452 -67 41 -200 101 -256 117 -26 7 -22 10 -173 -110 l-68 -54 108 -37
c146 -50 177 -64 253 -114 112 -75 155 -145 155 -255 0 -65 -4 -82 -30 -129
-87 -158 -299 -260 -640 -308 -142 -20 -635 -23 -820 -5 -192 19 -370 42 -458
58 -81 15 -207 51 -207 59 0 10 91 49 282 121 622 234 1089 502 1620 930 264
213 477 403 709 631 l235 232 62 -51 c35 -28 64 -49 67 -47 8 9 155 516 155
536 0 6 -15 1 -293 -91z"/>
<path d="M2290 3779 c-219 -28 -295 -44 -420 -87 -230 -80 -399 -210 -476
-366 -38 -78 -39 -83 -39 -185 0 -94 3 -112 27 -164 87 -184 297 -308 692
-407 l125 -32 136 89 c74 48 135 91 135 94 0 3 -37 11 -82 18 -131 21 -377 86
-490 130 -292 115 -388 284 -258 457 207 275 909 331 1398 113 l63 -29 99 78
c54 42 99 81 99 85 1 13 -174 92 -279 125 -52 17 -129 37 -171 46 -153 31
-444 50 -559 35z"/>
</g>
</svg>
